<?xml version="1.0" encoding="UTF-8"?><svg id="_レイヤー_2" xmlns="http://www.w3.org/2000/svg" viewBox="0 0 44.45 44.45"><defs><style>.cls-1{fill:#333;}.cls-1,.cls-2{stroke-width:0px;}.cls-2{fill:#fff;}</style></defs><g id="_レイヤー_1-2"><circle class="cls-1" cx="22.23" cy="22.23" r="22.23"/><g id="Layer_1-2"><path class="cls-2" d="M22.22,16.32c1.99,0,2.22,0,3.01.04.73.03,1.12.15,1.38.26.35.14.6.3.86.56.26.26.42.51.56.86.1.26.22.66.26,1.38.04.78.04,1.02.04,3.01s0,2.22-.04,3.01c-.03.73-.15,1.12-.26,1.38-.14.35-.3.6-.56.86-.26.26-.51.42-.86.56-.26.1-.66.22-1.38.26-.78.04-1.02.04-3.01.04s-2.22,0-3.01-.04c-.73-.03-1.12-.15-1.38-.26-.35-.14-.6-.3-.86-.56-.26-.26-.42-.51-.56-.86-.1-.26-.22-.66-.26-1.38-.04-.78-.04-1.02-.04-3.01s0-2.22.04-3.01c.03-.73.15-1.12.26-1.38.14-.35.3-.6.56-.86.26-.26.51-.42.86-.56.26-.1.66-.22,1.38-.26.78-.04,1.02-.04,3.01-.04h0ZM22.22,14.98c-2.02,0-2.27,0-3.07.04-.79.04-1.33.16-1.81.35-.49.19-.9.44-1.32.86-.41.41-.67.83-.86,1.32-.18.47-.31,1.01-.35,1.81-.04.79-.04,1.05-.04,3.07s0,2.27.04,3.07c.04.79.16,1.33.35,1.81.19.49.44.9.86,1.32.41.41.83.67,1.32.86.47.18,1.01.31,1.81.35.79.04,1.05.04,3.07.04s2.27,0,3.07-.04c.79-.04,1.33-.16,1.81-.35.49-.19.9-.44,1.32-.86.41-.41.67-.83.86-1.32.18-.47.31-1.01.35-1.81.04-.79.04-1.05.04-3.07s0-2.27-.04-3.07c-.04-.79-.16-1.33-.35-1.81-.19-.49-.44-.9-.86-1.32-.41-.41-.83-.67-1.32-.86-.47-.18-1.01-.31-1.81-.35-.79-.04-1.05-.04-3.07-.04ZM22.22,18.6c-2.11,0-3.82,1.71-3.82,3.82s1.71,3.82,3.82,3.82,3.82-1.71,3.82-3.82-1.71-3.82-3.82-3.82ZM22.22,24.9c-1.37,0-2.48-1.11-2.48-2.48s1.11-2.48,2.48-2.48,2.48,1.11,2.48,2.48-1.11,2.48-2.48,2.48ZM26.2,17.55c-.49,0-.89.4-.89.89s.4.89.89.89.89-.4.89-.89-.4-.89-.89-.89h0Z"/></g></g></svg>