<?xml version="1.0" encoding="UTF-8"?><svg id="_レイヤー_2" xmlns="http://www.w3.org/2000/svg" viewBox="0 0 25.95 25.95"><defs><style>.cls-1{fill:#fff;stroke-width:0px;}</style></defs><g id="_レイヤー_1-2"><path class="cls-1" d="M25.61,24.44l-1.17,1.17c-.46.46-1.22.46-1.72,0l-6.29-6.29c-1.67,1.12-3.7,1.77-5.88,1.77C4.72,21.1,0,16.38,0,10.55S4.72,0,10.55,0s10.55,4.72,10.55,10.55c0,2.18-.66,4.21-1.77,5.88l6.29,6.29c.46.51.46,1.27,0,1.72ZM10.55,17.04c3.6,0,6.49-2.89,6.49-6.49s-2.89-6.49-6.49-6.49-6.49,2.89-6.49,6.49,2.89,6.49,6.49,6.49Z"/></g></svg>