<?xml version="1.0" encoding="UTF-8"?><svg id="_レイヤー_2" xmlns="http://www.w3.org/2000/svg" viewBox="0 0 233.57 53.27"><defs><style>.cls-1{fill:#000;stroke-width:0px;}</style></defs><g id="_レイヤー_1-2"><path class="cls-1" d="M.1,10.56c0-.63.31-.95.94-.95h4.87c.24,0,.35-.13.35-.4v-3.31c-1.31.32-2.59.62-3.85.91-.6.12-1.09-.12-1.45-.73l-.31-1.71c0-.75.3-1.22.9-1.42C5.06,2.21,8.71,1.23,12.5.02c.6-.05.99.22,1.18.8l.55,1.64c.13.73-.14,1.2-.82,1.42-1.26.39-2.49.78-3.69,1.16v4.18c0,.27.1.4.31.4h3.89c.63,0,.94.32.94.95v2c0,.68-.31,1.02-.94,1.02h-2.94c1.02,2.16,2.24,4.43,3.65,6.83.29.56.22,1.05-.2,1.49l-1.37.84c-.58.19-1.02.02-1.33-.51-.73-1.19-1.4-2.35-2-3.49v14.57c0,.24-.12.36-.35.36h-2.75c-.24,0-.35-.12-.35-.36v-13.7c-1.07,2.79-2.09,5.02-3.06,6.69-.31.56-.76.75-1.33.58l-1.41-.84c-.47-.46-.58-.94-.31-1.45,1.49-2.57,3.01-6.24,4.55-11.01H1.04c-.63,0-.94-.34-.94-1.02v-2ZM15.92,9.87c-.31-.56-.18-1.01.39-1.34l1.45-.8c.52-.31.93-.18,1.22.4l2,4.03c.29.56.16,1.01-.39,1.34l-1.49.76c-.47.32-.86.18-1.18-.4l-2-4ZM15.8,16.34c0-.65.31-.98.94-.98h1.61c.55,0,.82.33.82.98v16.35c0,.65-.27.98-.82.98h-1.61c-.63,0-.94-.33-.94-.98v-16.35ZM17.6,5.87c-.5,0-.85-.3-1.06-.91l-.27-2c-.03-.58.29-.96.94-1.13,5.55-.07,11.18-.68,16.91-1.82.55-.1.89.15,1.02.73l.39,1.71c.16.68-.07,1.13-.67,1.34-5.78,1.31-11.54,2-17.27,2.07ZM21.25,17.72c0-1.45.71-2.18,2.12-2.18h9.69c1.39,0,2.08.73,2.08,2.18v13.34c0,1.48-.69,2.22-2.08,2.22h-9.69c-1.41,0-2.12-.74-2.12-2.22v-13.34ZM23.18,7.73c-.13-.61.13-.97.78-1.09l1.69-.25c.6-.05.95.23,1.06.84l.67,5.2c.13.63-.13,1.01-.78,1.13l-1.69.22c-.63.07-.98-.19-1.06-.8l-.67-5.23ZM25.02,19.46c-.21,0-.31.11-.31.33v2.29c0,.22.1.33.31.33h6.4c.21,0,.31-.11.31-.33v-2.29c0-.22-.1-.33-.31-.33h-6.4ZM31.42,29.31c.21,0,.31-.12.31-.36v-2.25c0-.22-.1-.33-.31-.33h-6.4c-.21,0-.31.11-.31.33v2.25c0,.24.1.36.31.36h6.4ZM33.38,14.16c-.34.49-.8.61-1.37.36l-1.18-.91c-.42-.46-.47-.94-.16-1.45,1.36-1.79,2.54-3.71,3.53-5.74.39-.39.81-.44,1.26-.15l1.22.8c.47.41.56.86.27,1.34-1.07,2.11-2.26,4.02-3.57,5.74Z"/><path class="cls-1" d="M47.12,33.6c-.39,0-.59-.25-.59-.76v-7.38c-1.39,2.37-2.89,4.36-4.51,5.96-.45.44-.92.51-1.41.22l-1.84-1.96c-.08-.49.03-.86.31-1.13,2.12-2.04,3.7-4.34,4.75-6.91h-3.92c-.55,0-.82-.36-.82-1.09v-1.85c0-.68.24-1.02.71-1.02h6.32c.21,0,.31-.13.31-.4v-1.38c0-.65.2-.98.59-.98h2.9c.39,0,.59.33.59.98v1.38c0,.27.1.4.31.4h4.75c.5,0,.75.34.75,1.02v1.85c0,.73-.29,1.09-.86,1.09h-3.06c.76,1.58,2.01,3.31,3.77,5.2.42.49.46,1.01.12,1.56l-1.22,1.13c-.6.56-1.13.61-1.57.15-1.1-1.04-2.13-2.33-3.1-3.85v7.01c0,.51-.2.76-.59.76h-2.67ZM55.36,16.85c-.45,0-.67-.22-.67-.65v-7.12c-3.19,2.59-7.04,4.58-11.54,5.96-.97.41-1.79.41-2.47,0l-1.22-2.25c-.1-.39.03-.71.39-.98,4.63-1.14,8.27-2.81,10.91-5.02h-7.85c-.63,0-.94-.31-.94-.94v-2.14c0-.61.27-.91.82-.91h11.38c.24,0,.35-.11.35-.33v-1.45c0-.65.22-.98.67-.98h2.94c.44,0,.67.33.67.98v1.45c0,.22.12.33.35.33h11.93c.55,0,.82.3.82.91v2.14c0,.63-.31.94-.94.94h-8.01c2.51,2.01,6.48,3.71,11.89,5.09.37.58.35,1.07-.04,1.45l-1.53,1.64c-.6.44-1.32.47-2.16.11-5-1.53-9.12-3.53-12.36-6v7.12c0,.44-.25.65-.75.65h-2.67ZM64.85,33.6c-.37,0-.55-.27-.55-.8v-6.61c-1.33,2.06-2.83,4.06-4.47,6-.39.46-.85.55-1.37.25l-1.92-2.18c-.13-.49-.03-.86.31-1.13,2.54-2.81,4.36-5.28,5.45-7.41h-3.45c-.55,0-.82-.36-.82-1.09v-1.82c0-.73.25-1.09.75-1.09h5.1c.21,0,.31-.11.31-.33v-2c0-.65.2-.98.59-.98h2.83c.39,0,.59.33.59.98v2c0,.22.12.33.35.33h5.89c.52,0,.78.36.78,1.09v1.82c0,.73-.3,1.09-.9,1.09h-4.43c1.83,2.35,3.61,4.43,5.34,6.25.42.32.55.73.39,1.24l-1.49,2.22c-.58.53-1.11.56-1.61.07-1.88-1.87-3.35-3.65-4.4-5.34v6.65c0,.53-.18.8-.55.8h-2.71Z"/><path class="cls-1" d="M84.22,6.64c0-.58.31-.87.94-.87h2.32c.57,0,.86.29.86.87v3.67c0,7.95-1.92,15.46-5.77,22.53-.29.48-.69.62-1.22.4l-2.16-.87c-.52-.27-.64-.67-.35-1.2,3.58-6.54,5.38-13.5,5.38-20.86v-3.67ZM102.51,4.53v5.78c0,7.37,1.79,14.32,5.38,20.86.29.53.17.93-.35,1.2l-2.16.87c-.52.22-.93.08-1.22-.4-3.85-7.07-5.77-14.59-5.77-22.53v-5.78c0-.58.29-.87.86-.87h2.32c.63,0,.94.29.94.87Z"/><path class="cls-1" d="M104.92,33.68c-.43,0-.79-.23-1.05-.67-3.86-7.1-5.82-14.74-5.82-22.71v-5.78c0-.77.44-1.21,1.2-1.21h2.32c.81,0,1.28.44,1.28,1.21v5.78c0,7.27,1.79,14.24,5.33,20.7.19.35.24.68.15.97-.09.29-.31.52-.65.69l-2.19.88c-.2.09-.4.13-.58.13ZM99.25,4c-.39,0-.52.14-.52.53v5.78c0,7.85,1.93,15.38,5.73,22.37.2.33.42.4.79.25l2.16-.87c.14-.07.25-.17.28-.28.03-.11,0-.26-.1-.45-3.59-6.56-5.42-13.63-5.42-21.02v-5.78c0-.34-.1-.53-.6-.53h-2.32ZM81.81,33.68c-.18,0-.38-.04-.58-.13l-2.16-.87c-.37-.19-.59-.42-.68-.71-.09-.29-.04-.62.15-.97,3.54-6.46,5.33-13.43,5.33-20.7v-3.67c0-.77.47-1.21,1.28-1.21h2.32c.76,0,1.2.44,1.2,1.21v3.67c0,7.97-1.95,15.6-5.81,22.69-.27.45-.63.68-1.06.68ZM85.17,6.1c-.5,0-.6.2-.6.53v3.67c0,7.39-1.82,14.46-5.42,21.02-.1.18-.13.33-.1.44.03.1.14.2.31.29l2.13.86c.37.16.6.08.8-.26,3.79-6.98,5.72-14.51,5.72-22.36v-3.67c0-.39-.14-.53-.52-.53h-2.32Z"/><path class="cls-1" d="M131.28,15.03c.62,0,.93.39.93,1.16v1.89c0,.78-.31,1.16-.93,1.16h-22.1c-.62,0-.93-.39-.93-1.16v-1.89c0-.78.31-1.16.93-1.16h22.1Z"/><path class="cls-1" d="M131.28,19.59h-22.1c-.47,0-1.27-.2-1.27-1.5v-1.89c0-1.31.8-1.5,1.27-1.5h22.1c.47,0,1.27.2,1.27,1.5v1.89c0,1.31-.8,1.5-1.27,1.5ZM109.18,15.37c-.21,0-.59,0-.59.82v1.89c0,.82.38.82.59.82h22.1c.21,0,.59,0,.59-.82v-1.89c0-.82-.38-.82-.59-.82h-22.1Z"/><path class="cls-1" d="M137.5,9.54c-.05-.53.21-.84.78-.91l9.65-1.13-.71-4.87c-.1-.61.16-.96.78-1.05l2.16-.25c.58-.05.89.22.94.8l.71,4.94,9.42-1.09c.57-.05.89.19.94.73l.2,1.93c.05.53-.21.82-.78.87l-9.26,1.05.9,6.21,11.73-1.27c.58-.05.89.19.94.73l.16,1.89c.05.53-.21.84-.78.91l-11.54,1.27,1.69,11.7c.1.61-.13.96-.71,1.05l-2.16.25c-.63.05-.97-.22-1.02-.8l-1.69-11.81-12.01,1.31c-.58.05-.89-.19-.94-.73l-.2-1.93c-.05-.53.21-.82.79-.87l11.85-1.27-.9-6.18-9.81,1.13c-.58.05-.89-.19-.94-.73l-.2-1.89Z"/><path class="cls-1" d="M152.44,33.66c-.73,0-1.17-.4-1.23-1.11l-1.64-11.47-11.68,1.27c-.77.07-1.25-.31-1.32-1.03l-.2-1.92c-.03-.35.04-.64.22-.85.19-.23.48-.36.88-.39l11.49-1.23-.8-5.5-9.48,1.09c-.77.07-1.25-.31-1.32-1.03l-.2-1.89c-.07-.72.32-1.18,1.08-1.28l9.31-1.09-.66-4.52c-.07-.38,0-.71.17-.96.18-.26.49-.42.9-.48l2.17-.26c.77-.07,1.25.34,1.32,1.11l.66,4.6,9.09-1.05c.78-.07,1.25.31,1.32,1.03l.2,1.92c.03.35-.04.64-.22.85-.19.23-.48.36-.87.39l-8.9,1.01.81,5.54,11.41-1.24c.77-.06,1.25.31,1.32,1.03l.16,1.9c.07.71-.32,1.18-1.08,1.27l-11.19,1.23,1.64,11.35c.07.39.01.72-.17.98-.17.24-.45.4-.82.46l-2.18.26c-.06,0-.11,0-.17,0ZM150.15,20.33l1.73,12.14c.03.35.15.55.66.51l2.15-.25c.17-.03.3-.09.36-.18.07-.1.09-.26.05-.48l-1.74-12.06,11.89-1.31c.44-.06.51-.24.48-.54l-.16-1.9c-.03-.29-.14-.46-.57-.42l-12.05,1.31-1-6.89,9.61-1.09c.15-.01.33-.05.42-.15.06-.07.08-.19.07-.35l-.2-1.92c-.03-.3-.14-.46-.58-.42l-9.74,1.13-.75-5.27c-.04-.41-.19-.54-.58-.51l-2.15.25c-.21.03-.36.1-.44.21-.07.1-.09.25-.05.45l.76,5.23-10,1.17c-.44.06-.52.24-.49.54l.2,1.89c.03.3.13.46.57.42l10.13-1.16,1,6.85-12.2,1.31c-.15.01-.33.05-.42.15-.06.07-.08.19-.07.35l.2,1.93c.03.3.13.46.57.42l12.33-1.34Z"/><path class="cls-1" d="M169.4,3.98c.18-.53.56-.71,1.14-.54l11.69,2.87c.57.15.78.49.63,1.02l-.63,1.93c-.16.53-.52.73-1.1.58l-11.73-2.91c-.58-.15-.77-.48-.59-1.02l.59-1.93ZM171.83,32.98c-.63.22-1.09.11-1.37-.33l-.98-1.67c-.29-.53-.1-.96.55-1.27,10.86-4.63,18.26-12.65,22.21-24.06.13-.58.48-.85,1.06-.8l2.16.58c.58.15.8.51.67,1.09-4.19,12.33-12.28,21.15-24.29,26.46Z"/><path class="cls-1" d="M171.25,33.43c-.55,0-.89-.3-1.08-.59l-.99-1.69c-.18-.34-.22-.65-.13-.94.11-.33.38-.6.83-.81,10.73-4.57,18.14-12.6,22.04-23.86.16-.71.66-1.09,1.41-1.03l2.22.59c.75.19,1.08.73.91,1.49-4.21,12.4-12.44,21.37-24.49,26.69h-.03c-.26.1-.49.14-.69.14ZM193.14,5.18c-.31,0-.49.16-.58.55-3.98,11.49-11.51,19.65-22.41,24.3-.25.12-.41.26-.46.4-.03.11,0,.23.08.39l.98,1.66c.12.19.35.39.96.18,11.85-5.24,19.96-14.07,24.09-26.25.08-.37-.03-.55-.43-.65l-2.16-.58s-.04,0-.06,0ZM181.47,10.22c-.13,0-.27-.02-.42-.06l-11.73-2.91c-.39-.1-.66-.28-.8-.55-.14-.25-.15-.56-.02-.91l.59-1.93c.24-.7.81-.98,1.56-.76l11.68,2.87c.39.1.66.28.81.54.14.25.16.55.06.9l-.63,1.94c-.16.56-.55.86-1.08.86ZM169.72,4.09l-.59,1.92c-.04.12-.08.28-.02.38.06.11.23.18.37.21l11.73,2.91c.46.12.6-.05.69-.35l.63-1.94c.05-.16.05-.28,0-.36-.07-.12-.25-.18-.39-.22l-11.69-2.87c-.47-.14-.63.02-.73.32Z"/><path class="cls-1" d="M208.16,1.91c.29-.53.68-.73,1.18-.58l2,.8c.58.27.77.67.59,1.2-.31.68-.65,1.34-1.02,2h11.58c.58,0,1.09.3,1.53.91l.63.8c.44.58.64,1.16.59,1.74-2.88,10.08-8.52,18.17-16.91,24.28-.47.31-.96.27-1.45-.15l-1.29-1.42c-.29-.49-.18-.91.31-1.27,7.61-5.98,12.69-12.87,15.23-20.64,0-.48-.26-.73-.78-.73h-11.5c-2.38,3.61-5.26,6.81-8.63,9.59-.52.44-.96.44-1.29,0l-1.45-1.42c-.42-.44-.39-.87.08-1.31,4.42-3.83,7.97-8.43,10.63-13.81Z"/><path class="cls-1" d="M207.69,33.6c-.31,0-.66-.11-1.04-.43l-1.33-1.45c-.42-.7-.28-1.31.36-1.78,7.5-5.89,12.57-12.76,15.09-20.42,0-.22-.09-.34-.44-.34h-11.32c-2.37,3.56-5.26,6.76-8.6,9.52-.36.3-.71.44-1.04.4-.28-.03-.53-.18-.74-.45l-1.42-1.38c-.28-.29-.41-.58-.4-.89,0-.32.17-.63.48-.91,4.38-3.79,7.93-8.4,10.56-13.71h0c.49-.92,1.2-.87,1.57-.76l2.03.81c.75.35,1.02.92.78,1.63-.25.53-.5,1.05-.77,1.55h11c.69,0,1.29.35,1.8,1.05l.62.79c.5.65.72,1.32.66,1.98-2.9,10.17-8.63,18.4-17.05,24.52-.22.15-.5.27-.82.27ZM208.64,8.51h11.68c.71,0,1.12.39,1.12,1.07l-.02.11c-2.55,7.81-7.71,14.81-15.34,20.8-.42.31-.4.55-.23.83l1.25,1.36c.45.37.78.25,1.01.09,8.28-6.02,13.93-14.13,16.78-24.09.03-.44-.14-.93-.53-1.44l-.62-.8c-.39-.53-.8-.78-1.26-.78h-12.16l.28-.51c.36-.64.7-1.31,1.01-1.98.08-.23.09-.51-.42-.75l-1.98-.79c-.21-.06-.48-.06-.75.42-2.68,5.39-6.28,10.07-10.71,13.91-.16.15-.25.3-.26.43,0,.12.06.25.2.39l1.44,1.41c.17.21.28.23.31.23.13.02.32-.07.53-.25,3.33-2.75,6.22-5.95,8.57-9.52l.1-.15Z"/><path class="cls-1" d="M1.61,44.23h1.52v8.89h-1.52v-8.89Z"/><path class="cls-1" d="M15.04,44.23l4.44,6.12v-6.12h1.52v8.89h-1.37l-4.44-6.11v6.11h-1.52v-8.89h1.37Z"/><path class="cls-1" d="M33.99,44.23h1.55l3.45,8.89h-1.54l-.81-2.11h-3.76l-.81,2.11h-1.54l3.45-8.89ZM33.43,49.62h2.67l-1.33-3.47-1.33,3.47Z"/><path class="cls-1" d="M49.93,44.23l2.89,4.47,2.89-4.47h1.41v8.89h-1.52v-5.97l-2.78,4.23-2.78-4.23v5.97h-1.52v-8.89h1.41Z"/><path class="cls-1" d="M76.07,48.68c0,2.63-1.9,4.6-4.49,4.6s-4.49-1.97-4.49-4.6,1.9-4.6,4.49-4.6,4.49,1.97,4.49,4.6ZM74.52,48.68c0-1.71-1.16-3.15-2.95-3.15s-2.95,1.43-2.95,3.15,1.16,3.15,2.95,3.15,2.95-1.43,2.95-3.15Z"/><path class="cls-1" d="M86.02,44.23h2.92c1.76,0,2.95,1.14,2.95,2.77,0,1.33-.71,2.35-1.98,2.67l2.22,3.45h-1.78l-2.11-3.35h-.7v3.35h-1.52v-8.89ZM90.34,47c0-.88-.61-1.32-1.59-1.32h-1.21v2.64h1.21c.98,0,1.59-.44,1.59-1.32Z"/><path class="cls-1" d="M102.04,44.23h1.52v8.89h-1.52v-8.89Z"/><path class="cls-1" d="M126.56,44.23h3.02c1.76,0,2.95,1.22,2.95,2.84s-1.18,2.84-2.95,2.84h-1.5v3.2h-1.52v-8.89ZM130.98,47.08c0-.84-.55-1.4-1.59-1.4h-1.31v2.79h1.31c1.04,0,1.59-.56,1.59-1.4Z"/><path class="cls-1" d="M144.21,44.23h1.55l3.45,8.89h-1.54l-.81-2.11h-3.76l-.81,2.11h-1.54l3.45-8.89ZM143.65,49.62h2.67l-1.33-3.47-1.33,3.47Z"/><path class="cls-1" d="M158.74,44.23h2.92c1.76,0,2.95,1.14,2.95,2.77,0,1.33-.71,2.35-1.98,2.67l2.22,3.45h-1.78l-2.11-3.35h-.7v3.35h-1.52v-8.89ZM163.05,47c0-.88-.61-1.32-1.59-1.32h-1.21v2.64h1.21c.98,0,1.59-.44,1.59-1.32Z"/><path class="cls-1" d="M176.19,48.22l3.17-3.99h1.9l-3.48,4.37,3.91,4.52h-2.02l-3.49-4.01v4.01h-1.52v-8.89h1.52v3.99Z"/><path class="cls-1" d="M191.28,44.23h1.52v8.89h-1.52v-8.89Z"/><path class="cls-1" d="M204.7,44.23l4.44,6.12v-6.12h1.52v8.89h-1.37l-4.44-6.11v6.11h-1.52v-8.89h1.37Z"/><path class="cls-1" d="M227.08,51.42v-1.88h-2.02v-1.42h3.52v4.04s-1.13,1.12-3.29,1.12c-2.6,0-4.67-1.97-4.67-4.6s2.01-4.6,4.61-4.6c2.18,0,3.29,1.33,3.29,1.33l-1.04,1.02s-.74-.93-2.25-.93c-1.79,0-3.06,1.46-3.06,3.17s1.33,3.17,3.12,3.17c1.27,0,1.79-.43,1.79-.43Z"/><path class="cls-1" d="M110.48,10.31c-2.66,0-4.83-2.17-4.83-4.83s2.17-4.83,4.83-4.83,4.83,2.17,4.83,4.83-2.17,4.83-4.83,4.83ZM110.48,3.37c-1.16,0-2.11.95-2.11,2.11s.95,2.11,2.11,2.11,2.11-.95,2.11-2.11-.95-2.11-2.11-2.11Z"/><rect class="cls-1" x="223.93" y="2.56" width="4.34" height="6.13" rx="1.01" ry="1.01"/><rect class="cls-1" x="229.24" y="2.56" width="4.34" height="6.13" rx="1.01" ry="1.01"/></g></svg>